<?xml version="1.0" standalone="no"?>
<!DOCTYPE svg PUBLIC "-//W3C//DTD SVG 20010904//EN"
 "http://www.w3.org/TR/2001/REC-SVG-20010904/DTD/svg10.dtd">
<svg version="1.0" xmlns="http://www.w3.org/2000/svg"
 width="128.000000pt" height="128.000000pt" viewBox="0 0 128.000000 128.000000"
 preserveAspectRatio="xMidYMid meet">
<metadata>
Created by potrace 1.11, written by Peter Selinger 2001-2013
</metadata>
<g transform="translate(0.000000,128.000000) scale(0.100000,-0.100000)"
fill="#000000" stroke="none">
<path d="M39 1241 l-39 -39 0 -418 c0 -403 1 -420 20 -452 29 -47 73 -62 180
-62 104 0 96 15 79 -139 -13 -112 -7 -131 40 -131 21 0 63 32 177 135 l149
134 263 1 c293 0 317 4 352 62 19 32 20 49 20 452 l0 418 -39 39 -39 39 -562
0 -562 0 -39 -39z"/>
</g>
</svg>
